<svg width="198" height="114" viewBox="0 0 198 114" fill="none" xmlns="http://www.w3.org/2000/svg">
<g clip-path="url(#clip0)">
<path d="M162.475 12.9597C139.776 -3.78007 108.196 -4.46407 85.1564 11.8461C72.9773 20.4682 63.5354 33.6593 65.2533 53.7442C65.8604 60.8486 67.5503 66.6767 70.0156 71.4478C80.0012 90.7893 121.014 90.0446 123.292 90.0417C124.768 90.0403 126.243 90.0719 127.719 90.1364C132.888 90.3634 138.029 90.9853 143.095 91.9963C150.316 93.4363 159.51 94.1599 167.725 91.4324C169.12 90.9711 170.477 90.4069 171.781 89.745C176.295 87.4499 181.348 85.2565 184.303 79.8128C186.523 75.7271 188.14 70.6041 188.919 64.2234C191.752 40.9855 177.595 24.1101 162.475 12.9597Z" fill="#F2F2F2"/>
<path d="M127.818 96.2438C163.666 96.2438 192.727 93.6339 192.727 90.4145C192.727 87.195 163.666 84.5851 127.818 84.5851C91.9699 84.5851 62.9091 87.195 62.9091 90.4145C62.9091 93.6339 91.9699 96.2438 127.818 96.2438Z" fill="#3F3D56"/>
<path opacity="0.1" d="M124.647 93.1507C157.989 93.1507 185.018 91.9257 185.018 90.4145C185.018 88.9033 157.989 87.6782 124.647 87.6782C91.3057 87.6782 64.2769 88.9033 64.2769 90.4145C64.2769 91.9257 91.3057 93.1507 124.647 93.1507Z" fill="black"/>
<path d="M158.045 12.3434V18.8833H149.146V90.2063H167.718V21.5982V18.8833V12.3434H158.045Z" fill="#575A89"/>
<path d="M109.034 56.2723V45.0434H97.6839V56.2723H93.4278V90.3297H113.161V56.2723H109.034Z" fill="#575A89"/>
<path d="M110.969 74.535H95.6203V90.4531H110.969V74.535Z" fill="#3F3D56"/>
<path opacity="0.1" d="M98.0708 74.535H95.6203V90.4531H98.0708V74.535Z" fill="black"/>
<path d="M142.568 8.76486V12.5901H119.868V8.76486H113.161V90.4531H149.146V8.76486H142.568Z" fill="#3F3D56"/>
<path opacity="0.1" d="M147.598 8.76492H142.568V12.5902H147.598V8.76492Z" fill="black"/>
<path opacity="0.1" d="M118.191 8.76492H113.161V90.4531H118.191V8.76492Z" fill="black"/>
<path d="M87.4948 32.0868V29.0018H84.1414V32.0868H78.0794V90.4531H93.4278V32.0868H87.4948Z" fill="#3F3D56"/>
<path opacity="0.1" d="M85.947 29.0019H84.1414V32.0868H85.947V29.0019Z" fill="black"/>
<path opacity="0.1" d="M79.8851 32.0868H78.0795V90.4531H79.8851V32.0868Z" fill="black"/>
<path opacity="0.1" d="M147.598 40.2309H142.568V90.4531H147.598V40.2309Z" fill="black"/>
<path opacity="0.1" d="M93.4277 32.0868H88.7845V42.8222H93.4277V32.0868Z" fill="black"/>
<path d="M125.93 19.1302H118.707V22.0917H125.93V19.1302Z" fill="#F8773B"/>
<path d="M141.278 49.609H134.055V52.5705H141.278V49.609Z" fill="#F8773B"/>
<path d="M125.93 70.9565H118.707V73.918H125.93V70.9565Z" fill="#F8773B"/>
<path d="M89.4294 45.4135H82.2067V48.375H89.4294V45.4135Z" fill="#F8773B"/>
<path d="M106.97 76.2625H99.7476V79.224H106.97V76.2625Z" fill="#F8773B"/>
<path opacity="0.1" d="M109.55 58.8637H97.168V63.7995H109.55V58.8637Z" fill="black"/>
<path opacity="0.1" d="M163.72 24.5596H151.338V29.4954H163.72V24.5596Z" fill="black"/>
<path opacity="0.1" d="M163.72 35.0482H151.338V39.9841H163.72V35.0482Z" fill="black"/>
<path opacity="0.1" d="M163.72 45.5369H151.338V50.4728H163.72V45.5369Z" fill="black"/>
<path opacity="0.1" d="M163.72 56.0256H151.338V60.9614H163.72V56.0256Z" fill="black"/>
<path opacity="0.1" d="M163.72 66.5143H151.338V71.4501H163.72V66.5143Z" fill="black"/>
<path opacity="0.1" d="M163.72 77.0029H151.338V81.9388H163.72V77.0029Z" fill="black"/>
<path d="M171.975 46.8942V33.4441H162.946V46.8942H159.722V90.4531H175.07V46.8942H171.975Z" fill="#3F3D56"/>
<path opacity="0.1" d="M165.784 33.4441H162.946V46.8943H165.784V33.4441Z" fill="black"/>
<path opacity="0.1" d="M162.559 46.8943H159.722V90.4531H162.559V46.8943Z" fill="black"/>
<path opacity="0.1" d="M175.07 68.7354H167.46V73.0542H175.07V68.7354Z" fill="black"/>
<path d="M174.941 62.3188H167.718V65.2803H174.941V62.3188Z" fill="#FF6584"/>
<path d="M197.548 65.3086C197.548 76.3021 190.717 80.1406 182.29 80.1406C173.864 80.1406 167.033 76.3021 167.033 65.3086C167.033 54.3151 182.29 40.3296 182.29 40.3296C182.29 40.3296 197.548 54.3151 197.548 65.3086Z" fill="#F8773B"/>
<path d="M181.734 78.4589L181.891 69.2583L188.394 57.8759L181.915 67.815L181.985 63.678L186.467 55.443L182.004 62.5834L182.13 55.1429L186.93 48.5866L182.15 53.9729L182.229 40.3295L181.733 58.3907L181.774 57.6457L176.894 50.4998L181.696 59.076L181.241 67.3858L181.227 67.1652L175.602 59.6452L181.21 67.9444L181.153 68.9836L181.143 68.9991L181.148 69.0844L179.995 90.1671H181.536L181.721 79.2775L187.315 70.9989L181.734 78.4589Z" fill="#3F3D56"/>
<path d="M85.7261 65.4275C85.7261 76.421 78.8951 80.2595 70.4686 80.2595C62.0421 80.2595 55.211 76.421 55.211 65.4275C55.211 54.434 70.4686 40.4486 70.4686 40.4486C70.4686 40.4486 85.7261 54.434 85.7261 65.4275Z" fill="#F8773B"/>
<path d="M69.9127 78.5779L70.0689 69.3773L76.5722 57.9949L70.0936 67.934L70.1638 63.797L74.6456 55.5619L70.1824 62.7022V62.7024L70.3087 55.2619L75.1081 48.7056L70.3286 54.0919L70.4076 40.4485L69.9113 58.5097L69.9521 57.7647L65.0726 50.6188L69.8739 59.1949L69.4193 67.5046L69.4058 67.2842L63.7805 59.7642L69.3887 68.0634L69.3319 69.1025L69.3217 69.1181L69.3262 69.2034L68.1728 90.2859H69.714L69.8988 79.3965L75.4933 71.1178L69.9127 78.5779Z" fill="#3F3D56"/>
<path d="M36.4135 113.17C56.5242 113.17 72.827 111.06 72.827 108.457C72.827 105.855 56.5242 103.745 36.4135 103.745C16.3029 103.745 0 105.855 0 108.457C0 111.06 16.3029 113.17 36.4135 113.17Z" fill="#3F3D56"/>
<path opacity="0.1" d="M36.4135 112.145C52.1523 112.145 64.911 110.494 64.911 108.457C64.911 106.42 52.1523 104.769 36.4135 104.769C20.6748 104.769 7.91599 106.42 7.91599 108.457C7.91599 110.494 20.6748 112.145 36.4135 112.145Z" fill="black"/>
<path d="M31.2645 41.3641C35.5367 41.3641 38.9999 38.0507 38.9999 33.9634C38.9999 29.8761 35.5367 26.5627 31.2645 26.5627C26.9924 26.5627 23.5291 29.8761 23.5291 33.9634C23.5291 38.0507 26.9924 41.3641 31.2645 41.3641Z" fill="#2F2E41"/>
<path d="M33.3771 40.5879C35.7682 40.5879 37.7065 38.7335 37.7065 36.4459C37.7065 34.1583 35.7682 32.3038 33.3771 32.3038C30.9861 32.3038 29.0478 34.1583 29.0478 36.4459C29.0478 38.7335 30.9861 40.5879 33.3771 40.5879Z" fill="#FFB9B9"/>
<path d="M30.9556 38.6222C30.9556 38.6222 32.0563 41.1495 30.3686 41.8516C28.6809 42.5536 29.3413 46.6957 29.3413 46.6957L35.9454 45.3618C35.9454 45.3618 35.9454 43.6067 34.6246 42.8344C33.3038 42.0622 36.3857 38.6222 36.3857 38.6222H30.9556Z" fill="#FFB9B9"/>
<path d="M28.8277 57.2965L29.0478 59.6133L38.954 61.2279L38.0001 56.9456L28.8277 57.2965Z" fill="#FFB9B9"/>
<path d="M28.6809 75.9006L29.0478 85.7292C29.0478 85.7292 27.2867 89.7308 28.6809 97.1022C30.0751 104.474 29.0478 106.51 29.0478 106.51L34.0376 107.141L33.744 104.403L32.57 102.017L33.0836 88.3969C33.0836 88.3969 35.3584 83.3422 35.4318 82.3594C35.5052 81.3765 35.285 74.2157 35.285 74.2157L28.6809 75.9006Z" fill="#FFB9B9"/>
<path opacity="0.1" d="M28.6809 75.9006L29.0478 85.7292C29.0478 85.7292 27.2867 89.7308 28.6809 97.1022C30.0751 104.474 29.0478 106.51 29.0478 106.51L34.0376 107.141L33.744 104.403L32.57 102.017L33.0836 88.3969C33.0836 88.3969 35.3584 83.3422 35.4318 82.3594C35.5052 81.3765 35.285 74.2157 35.285 74.2157L28.6809 75.9006Z" fill="black"/>
<path d="M30.2218 103.14C30.2218 103.14 30.2218 102.227 29.7816 102.157C29.3413 102.087 28.7543 101.876 28.7543 102.157C28.7543 102.438 28.6809 104.403 28.5341 104.684C28.3874 104.965 28.0938 106.018 28.314 106.439C28.314 106.439 27.6536 108.054 28.1672 108.194C28.6809 108.335 31.616 108.335 31.616 108.335L31.7628 107.563C31.7628 107.563 38.2935 109.528 39.6877 107.773C39.6877 107.773 40.3482 106.51 39.1741 106.229C39.1741 106.229 36.5324 106.299 35.5785 105.246C34.6246 104.193 32.7901 101.736 32.7901 101.736C32.7901 101.736 31.3225 101.946 31.4693 102.859V103.14H30.2218Z" fill="#2F2E41"/>
<path d="M32.7167 76.1112C32.7167 76.1112 33.4505 81.0255 36.0188 84.6059C36.0188 84.6059 37.3396 87.5545 37.1195 88.4671C36.8994 89.3798 36.8993 94.3643 39.1007 98.7871L41.1553 105.246L42.1826 107.563L43.9437 108.265L46.8055 108.475L45.1912 105.246L44.384 103.561C44.384 103.561 42.9164 100.683 42.9164 98.1553C42.9164 95.6279 41.9625 89.6606 41.9625 89.6606C41.9625 89.6606 41.9625 76.1814 40.4215 75.339C38.8806 74.4965 32.7167 76.1112 32.7167 76.1112Z" fill="#FFB9B9"/>
<path d="M29.4147 58.9112L28.6809 58.7708V61.93C28.6809 61.93 28.3874 64.3871 27.7269 64.8785C27.0665 65.37 24.4983 75.0581 25.3788 75.6198C26.2594 76.1814 38.0734 79.13 40.9352 76.1112L38.954 66.9145C38.954 66.9145 39.1007 60.5961 38.954 60.5961C38.8072 60.5961 29.4147 58.9112 29.4147 58.9112Z" fill="#2F2E41"/>
<path d="M36.3857 44.7299C36.3857 44.7299 32.7167 42.343 29.0478 45.432C29.0478 45.432 27.7269 50.6271 27.5068 51.8908C27.2867 53.1544 25.8925 58.3495 26.9198 58.841C27.9471 59.3324 27.9471 57.6475 30.5887 57.9985C33.2304 58.3495 38.8806 58.2091 38.8806 57.7879C38.8806 57.3667 37.5598 53.9969 38.0734 53.4353C38.5871 52.8736 39.4676 50.2059 38.5871 48.872C37.7065 47.5381 36.3857 44.7299 36.3857 44.7299Z" fill="#F8773B"/>
<path d="M31.6161 58.9112L38.954 62.2108C38.954 62.2108 41.8891 65.7912 42.5496 63.7553C43.21 61.7194 40.3482 60.2451 40.3482 60.2451L35.4318 57.5773L31.6161 58.7708L31.6161 58.9112Z" fill="#FFB9B9"/>
<path opacity="0.1" d="M32.1297 45.432C32.1297 45.432 27.9471 57.7879 31.7628 59.7536C35.5785 61.7194 36.1655 57.9985 36.1655 57.9985C36.1655 57.9985 33.5973 56.454 34.4044 54.5585C35.2116 52.663 35.9454 45.432 35.9454 45.432L32.1297 45.432Z" fill="black"/>
<path d="M31.9096 45.0108C31.9096 45.0108 27.7269 57.3667 31.5427 59.3324C35.3584 61.2981 35.9454 57.5773 35.9454 57.5773C35.9454 57.5773 33.3772 56.0328 34.1843 54.1373C34.9915 52.2418 35.7253 45.0108 35.7253 45.0108L31.9096 45.0108Z" fill="#F8773B"/>
<path d="M41.9944 104.583C41.9944 104.583 41.9207 103.627 41.4539 103.586C40.9871 103.545 40.3553 103.368 40.3779 103.662C40.4006 103.956 40.4824 106.02 40.3513 106.325C40.2203 106.63 39.9978 107.755 40.2624 108.18C40.2624 108.18 39.701 109.92 40.2503 110.029C40.7996 110.138 43.8739 109.921 43.8739 109.921L43.9652 109.102C43.9652 109.102 50.964 110.678 52.2827 108.737C52.2827 108.737 52.8724 107.365 51.6201 107.157C51.6201 107.157 48.8589 107.426 47.7748 106.393C46.6907 105.361 44.571 102.923 44.571 102.923C44.571 102.923 43.0509 103.252 43.2783 104.197L43.3009 104.491L41.9944 104.583Z" fill="#2F2E41"/>
<path d="M33.368 36.4303C36.2536 36.4303 38.5928 35.2386 38.5928 33.7686C38.5928 32.2987 36.2536 31.107 33.368 31.107C30.4825 31.107 28.1432 32.2987 28.1432 33.7686C28.1432 35.2386 30.4825 36.4303 33.368 36.4303Z" fill="#2F2E41"/>
<path d="M29.0254 38.248C29.4376 38.248 29.7718 37.7539 29.7718 37.1444C29.7718 36.5349 29.4376 36.0408 29.0254 36.0408C28.6131 36.0408 28.279 36.5349 28.279 37.1444C28.279 37.7539 28.6131 38.248 29.0254 38.248Z" fill="#FFB9B9"/>
<path d="M26.5147 30.0683C28.5384 30.0683 30.1789 28.4988 30.1789 26.5627C30.1789 24.6266 28.5384 23.0571 26.5147 23.0571C24.4911 23.0571 22.8506 24.6266 22.8506 26.5627C22.8506 28.4988 24.4911 30.0683 26.5147 30.0683Z" fill="#2F2E41"/>
</g>
<defs>
<clipPath id="clip0">
<rect width="197.548" height="113.17" fill="white"/>
</clipPath>
</defs>
</svg>
