<svg width="198" height="178" viewBox="0 0 198 178" fill="none" xmlns="http://www.w3.org/2000/svg">
<g clip-path="url(#clip0)">
<path d="M0.227014 157.649C1.30195 170.267 5.85495 180.706 5.85495 180.706L197.96 180.749L198 3.2022L135.147 3.38514C135.147 3.38514 110.479 0.553811 85.19 20.5631C84.3997 21.1876 83.6253 21.8291 82.8665 22.4878C79.3095 25.5648 76.0763 28.9976 73.2176 32.7325C65.4968 42.8564 60.6179 54.8579 59.0847 67.4979C57.8648 77.4016 54.7745 89.9888 47.2495 100.419C46.9913 100.776 46.7285 101.131 46.4611 101.483C41.2718 108.296 34.0966 114.092 24.1931 117.455C14.8255 120.638 8.83853 125.797 5.16649 131.836C0.343345 139.759 -0.496155 149.194 0.227014 157.649Z" fill="#F8773B"/>
<path opacity="0.1" d="M197.98 37.0736H164.288V131.857H197.98V37.0736Z" fill="black"/>
<path opacity="0.1" d="M86.2635 131.857H125.276L125.276 57.9615H86.2635V131.857Z" fill="black"/>
<path opacity="0.1" d="M47.2514 100.431V131.857H86.2635V32.7383H73.2043C65.4858 42.8639 60.6096 54.8666 59.0792 67.5068C57.8615 77.4109 54.774 89.9988 47.2514 100.431Z" fill="black"/>
<path opacity="0.1" d="M125.276 131.857H164.288V16.9739H125.276L125.276 131.857Z" fill="black"/>
<path opacity="0.1" d="M0.241792 157.672H197.98V131.857H5.17546C0.3541 139.781 -0.483282 149.216 0.241792 157.672Z" fill="white"/>
<g opacity="0.5">
<g opacity="0.6">
<path d="M105.007 77.4612C105.007 77.4612 78.0721 118.005 82.2009 129.882L105.007 77.4612Z" fill="#F55F44"/>
<path d="M105.007 77.4612C105.007 77.4612 78.0721 118.005 82.2009 129.882" stroke="#535461" stroke-miterlimit="10"/>
</g>
<g opacity="0.6">
<path d="M113.147 103.644C113.147 103.644 105.603 98.1642 92.3763 98.6221L113.147 103.644Z" fill="#F55F44"/>
<path d="M113.147 103.644C113.147 103.644 105.603 98.1642 92.3763 98.6221" stroke="#535461" stroke-miterlimit="10"/>
</g>
<g opacity="0.6">
<path d="M89.6963 103.76C89.6963 103.76 89.379 93.818 80.5457 86.9838L89.6963 103.76Z" fill="#F55F44"/>
<path d="M89.6963 103.76C89.6963 103.76 89.379 93.818 80.5457 86.9838" stroke="#535461" stroke-miterlimit="10"/>
</g>
<g opacity="0.6">
<path d="M102.687 120.411C102.687 120.411 92.5624 112.225 85.6467 112.495L102.687 120.411Z" fill="#F55F44"/>
<path d="M102.687 120.411C102.687 120.411 92.5624 112.225 85.6467 112.495" stroke="#535461" stroke-miterlimit="10"/>
</g>
<g opacity="0.6">
<path d="M83.8437 117.194C83.8437 117.194 79.4798 111.244 71.6757 109.699L83.8437 117.194Z" fill="#F55F44"/>
<path d="M83.8437 117.194C83.8437 117.194 79.4798 111.244 71.6757 109.699" stroke="#535461" stroke-miterlimit="10"/>
</g>
</g>
<g opacity="0.5">
<path opacity="0.6" d="M161.967 77.5474C161.967 77.5474 170.592 125.454 181.793 131.167" stroke="#535461" stroke-miterlimit="10"/>
<path opacity="0.6" d="M185.964 90.8065C185.964 90.8065 176.727 92.0749 167.499 101.563" stroke="#535461" stroke-miterlimit="10"/>
<path opacity="0.6" d="M169.121 107.126C169.121 107.126 162.011 100.171 150.906 101.355" stroke="#535461" stroke-miterlimit="10"/>
<path opacity="0.6" d="M190.022 110.149C190.022 110.149 177.049 111.251 172.245 116.234" stroke="#535461" stroke-miterlimit="10"/>
<path opacity="0.6" d="M174.196 120.873C174.196 120.873 166.928 119.6 160.227 123.888" stroke="#535461" stroke-miterlimit="10"/>
</g>
<g opacity="0.5">
<path opacity="0.5" d="M34.9172 116.843C34.9631 120.082 37.6946 122.642 40.9328 122.642H41.3835C41.7817 122.641 42.1646 122.796 42.45 123.073C42.6668 123.276 42.8176 123.54 42.8832 123.829C42.9134 123.946 42.9285 124.067 42.9282 124.187V129.904C42.9266 131.003 43.2411 132.079 43.8343 133.004C44.6966 134.315 45.1642 135.847 45.1815 137.416C45.1817 137.782 45.2549 138.144 45.3966 138.482C45.5384 138.819 45.746 139.125 46.0073 139.381C46.2685 139.638 46.5783 139.84 46.9183 139.975C47.2584 140.11 47.6221 140.177 47.9881 140.17C49.5028 140.143 50.6895 138.84 50.6895 137.326V135.896L51.4405 135.983V137.416C51.4408 137.782 51.5139 138.144 51.6557 138.482C51.7975 138.819 52.0051 139.125 52.2663 139.381C52.5276 139.638 52.8373 139.84 53.1774 139.975C53.5175 140.11 53.8811 140.177 54.2471 140.17C55.7618 140.143 56.9485 138.84 56.9485 137.326V136.602C57.6996 136.915 61.9558 136.915 63.1375 136.612L63.458 136.587V137.416C63.4582 137.782 63.5313 138.144 63.6731 138.482C63.8149 138.819 64.0225 139.125 64.2837 139.381C64.545 139.638 64.8547 139.84 65.1948 139.975C65.5349 140.11 65.8986 140.177 66.2645 140.17C67.7792 140.143 68.9659 138.84 68.9659 137.326V136.136L69.2163 136.114V137.416C69.2164 137.646 69.245 137.876 69.3014 138.099C69.4561 138.7 69.8088 139.232 70.3026 139.607C70.7965 139.983 71.4025 140.181 72.0229 140.17C72.6884 140.145 73.3234 139.884 73.8138 139.434C74.3043 138.983 74.6182 138.372 74.6993 137.711C74.7153 137.583 74.7236 137.455 74.7243 137.326V131.344C74.7267 129.289 74.0389 127.294 72.7715 125.677C72.5516 125.391 72.4285 125.043 72.4199 124.682C72.4114 124.322 72.5178 123.968 72.7239 123.672C74.1259 121.618 76.1989 118.153 76.1313 115.697C76.145 115.03 75.9113 114.383 75.4754 113.879C75.4478 113.849 75.4203 113.819 75.3928 113.791C73.3748 111.678 69.8222 113.34 70.1301 116.245C70.2342 117.218 70.1621 118.202 69.9173 119.149C69.7784 119.685 69.5898 120.206 69.354 120.707C69.1187 121.209 68.7311 121.625 68.2461 121.895C67.7612 122.164 67.2036 122.275 66.6526 122.209C66.2779 122.164 65.9009 122.141 65.5235 122.142H53.9442C53.2649 122.142 52.6026 121.929 52.0504 121.533C51.4981 121.137 51.0835 120.579 50.8647 119.936C50.7474 119.598 50.6882 119.244 50.6895 118.887V109.872C50.6895 109.637 50.6424 109.405 50.5509 109.189C50.4594 108.972 50.3254 108.777 50.1568 108.613C49.9882 108.45 49.7884 108.322 49.5694 108.237C49.3504 108.152 49.1166 108.112 48.8819 108.12C48.6528 108.127 48.4276 108.181 48.2199 108.278C48.0121 108.375 47.826 108.513 47.6726 108.683C47.3591 109.029 47.1852 109.479 47.1844 109.946C47.1844 110.067 47.1604 110.188 47.1137 110.301C47.067 110.414 46.9986 110.516 46.9123 110.602C46.826 110.688 46.7236 110.757 46.611 110.803C46.4983 110.85 46.3775 110.874 46.2555 110.874H40.8002C40.0202 110.874 39.2481 111.028 38.5285 111.329C37.809 111.63 37.1565 112.071 36.6091 112.627C36.0616 113.182 35.6301 113.841 35.3396 114.565C35.0492 115.289 34.9056 116.064 34.9172 116.843Z" fill="url(#paint0_linear)"/>
<path opacity="0.5" d="M69.3015 138.099C69.4561 138.7 69.8089 139.232 70.3027 139.607C70.7965 139.983 71.4025 140.181 72.0229 140.17C72.6884 140.145 73.3234 139.884 73.8138 139.434C74.3043 138.983 74.6182 138.372 74.6993 137.711C73.0318 137.26 70.721 136.95 69.3015 138.099Z" fill="url(#paint1_linear)"/>
<path opacity="0.5" d="M63.5431 138.099C63.6978 138.7 64.0505 139.232 64.5443 139.607C65.0381 139.983 65.6442 140.181 66.2645 140.17C66.9301 140.145 67.565 139.884 68.0555 139.434C68.5459 138.983 68.8599 138.372 68.9409 137.711C67.2735 137.26 64.9626 136.95 63.5431 138.099Z" fill="url(#paint2_linear)"/>
<path opacity="0.5" d="M51.5257 138.099C51.6804 138.7 52.0331 139.232 52.5269 139.607C53.0207 139.983 53.6268 140.181 54.2471 140.17C54.9127 140.145 55.5476 139.884 56.0381 139.434C56.5285 138.983 56.8425 138.372 56.9235 137.711C55.2561 137.26 52.9453 136.95 51.5257 138.099Z" fill="url(#paint3_linear)"/>
<path opacity="0.5" d="M45.2667 138.099C45.4213 138.7 45.7741 139.232 46.2679 139.607C46.7617 139.983 47.3677 140.181 47.9881 140.17C48.6536 140.145 49.2886 139.884 49.779 139.434C50.2695 138.983 50.5834 138.372 50.6645 137.711C48.9971 137.26 46.6862 136.95 45.2667 138.099Z" fill="url(#paint4_linear)"/>
<path opacity="0.5" d="M69.9174 119.149C71.8627 118.368 74.2361 116.938 76.1314 115.697C76.1451 115.03 75.9114 114.383 75.4754 113.879C75.4479 113.849 75.4204 113.819 75.3928 113.791C73.3749 111.678 69.8222 113.34 70.1302 116.245C70.2342 117.218 70.1621 118.202 69.9174 119.149Z" fill="url(#paint5_linear)"/>
<path opacity="0.5" d="M67.5627 122.158C67.5627 122.158 62.2062 128.902 53.4435 122.142L67.5627 122.158Z" fill="url(#paint6_linear)"/>
<path opacity="0.5" d="M50.6895 109.622C50.6895 109.622 47.4347 113.879 50.6895 119.137V109.622Z" fill="url(#paint7_linear)"/>
<path opacity="0.5" d="M42.9282 124.145C42.9282 124.145 45.7947 127.707 42.9641 130.538L42.9282 124.145Z" fill="url(#paint8_linear)"/>
<g opacity="0.1">
<path opacity="0.1" d="M42.6779 123.394C42.8906 123.594 42.8181 123.787 42.8832 124.08L52.1916 121.641C51.6909 121.255 51.07 120.797 50.8647 120.186C49.7481 121.052 47.5424 122.505 42.6779 123.394Z" fill="url(#paint9_linear)"/>
</g>
<path opacity="0.5" d="M42.45 123.073C42.6667 123.276 42.8176 123.54 42.8831 123.829L51.9563 121.463C51.4494 121.073 51.0695 120.542 50.8647 119.936C49.7481 120.802 47.3146 122.184 42.45 123.073Z" fill="url(#paint10_linear)"/>
<path opacity="0.1" d="M50.5236 120.436C50.5236 120.436 47.6851 122.572 42.9282 123.233L50.5236 120.436Z" fill="url(#paint11_linear)"/>
<path opacity="0.5" d="M50.5236 120.186C50.5236 120.186 47.6851 122.321 42.9282 122.983L50.5236 120.186Z" fill="url(#paint12_linear)"/>
<g opacity="0.1">
<path opacity="0.1" d="M43.4289 120.389C43.4289 120.389 38.672 121.891 37.4202 117.134L43.4289 120.389Z" fill="url(#paint13_linear)"/>
</g>
<path opacity="0.5" d="M43.4289 120.139C43.4289 120.139 38.672 121.641 37.4202 116.883L43.4289 120.139Z" fill="url(#paint14_linear)"/>
<path opacity="0.5" d="M34.9166 117.134C35.1932 117.134 35.4173 116.741 35.4173 116.257C35.4173 115.773 35.1932 115.381 34.9166 115.381C34.6401 115.381 34.4159 115.773 34.4159 116.257C34.4159 116.741 34.6401 117.134 34.9166 117.134Z" fill="url(#paint15_linear)"/>
<path opacity="0.1" d="M72.8466 134.286L71.8452 126.273C71.8452 126.273 74.8495 131.031 72.8466 134.286Z" fill="url(#paint16_linear)"/>
<path opacity="0.5" d="M71.5948 126.273C71.5948 126.273 74.5991 131.031 72.5962 134.286L71.5948 126.273Z" fill="url(#paint17_linear)"/>
</g>
<path d="M35.8498 117.178C35.8936 120.268 38.4999 122.711 41.5898 122.711H42.0199C42.3998 122.71 42.7651 122.857 43.0375 123.122C43.2443 123.316 43.3883 123.567 43.4508 123.844C43.4796 123.955 43.4941 124.07 43.4938 124.185V129.64C43.4922 130.689 43.7924 131.716 44.3584 132.599C45.1812 133.85 45.6274 135.311 45.6439 136.808C45.6441 137.157 45.7139 137.503 45.8491 137.825C45.9844 138.147 46.1825 138.439 46.4318 138.683C46.6811 138.928 46.9766 139.121 47.3011 139.25C47.6256 139.379 47.9726 139.442 48.3219 139.436C49.7672 139.41 50.8995 138.167 50.8995 136.722V135.357L51.6162 135.441V136.808C51.6164 137.157 51.6862 137.503 51.8215 137.825C51.9568 138.147 52.1548 138.439 52.4041 138.683C52.6534 138.928 52.949 139.121 53.2735 139.25C53.598 139.379 53.945 139.442 54.2942 139.436C55.7395 139.41 56.8718 138.167 56.8718 136.722V136.031C57.5885 136.33 61.6497 136.33 62.7773 136.041L63.0831 136.017V136.808C63.0833 137.157 63.1531 137.503 63.2883 137.825C63.4236 138.147 63.6217 138.439 63.871 138.683C64.1203 138.928 64.4158 139.121 64.7403 139.25C65.0649 139.379 65.4118 139.442 65.7611 139.436C67.2064 139.41 68.3387 138.167 68.3387 136.722V135.587L68.5776 135.565V136.808C68.5777 137.028 68.6049 137.247 68.6588 137.46C68.8064 138.033 69.143 138.54 69.6142 138.899C70.0854 139.257 70.6636 139.447 71.2556 139.436C71.8906 139.412 72.4965 139.163 72.9645 138.733C73.4325 138.303 73.732 137.721 73.8094 137.09C73.8246 136.968 73.8326 136.845 73.8332 136.722V131.014C73.8355 129.054 73.1793 127.15 71.9699 125.607C71.7601 125.334 71.6426 125.002 71.6345 124.658C71.6263 124.313 71.7279 123.976 71.9245 123.693C73.2623 121.734 75.2403 118.427 75.1758 116.084C75.1889 115.448 74.9659 114.83 74.5499 114.349C74.5237 114.32 74.4974 114.292 74.4711 114.265C72.5456 112.249 69.1557 113.835 69.4496 116.607C69.5488 117.535 69.48 118.474 69.2465 119.378C69.114 119.889 68.934 120.387 68.709 120.864C68.4845 121.344 68.1146 121.741 67.6519 121.998C67.1891 122.255 66.6571 122.36 66.1313 122.298C65.7738 122.255 65.414 122.233 65.0539 122.233H54.0051C53.3569 122.233 52.725 122.03 52.1981 121.653C51.6711 121.275 51.2755 120.742 51.0667 120.129C50.9548 119.807 50.8983 119.468 50.8995 119.127V110.526C50.8996 110.302 50.8546 110.08 50.7673 109.874C50.68 109.667 50.5521 109.481 50.3912 109.325C50.2303 109.169 50.0397 109.047 49.8308 108.966C49.6218 108.885 49.3987 108.847 49.1747 108.854C48.9561 108.861 48.7413 108.913 48.543 109.005C48.3448 109.097 48.1672 109.229 48.0208 109.391C47.7217 109.721 47.5557 110.151 47.555 110.596C47.555 110.712 47.5321 110.828 47.4875 110.935C47.443 111.043 47.3777 111.14 47.2954 111.223C47.2131 111.305 47.1153 111.37 47.0078 111.415C46.9003 111.459 46.7851 111.482 46.6687 111.482H41.4632C40.719 111.482 39.9822 111.629 39.2957 111.916C38.6091 112.204 37.9865 112.624 37.4641 113.155C36.9418 113.685 36.53 114.313 36.2529 115.004C35.9757 115.695 35.8387 116.434 35.8498 117.178H35.8498Z" fill="#F3AD55"/>
<path d="M68.6589 137.46C68.8065 138.033 69.143 138.54 69.6142 138.899C70.0854 139.257 70.6637 139.447 71.2556 139.436C71.8907 139.412 72.4965 139.163 72.9645 138.733C73.4325 138.303 73.7321 137.721 73.8094 137.09C72.2184 136.66 70.0134 136.363 68.6589 137.46Z" fill="#F38143"/>
<path d="M63.1644 137.46C63.3119 138.033 63.6485 138.54 64.1197 138.899C64.5909 139.257 65.1692 139.447 65.7611 139.436C66.3962 139.412 67.002 139.163 67.47 138.733C67.938 138.303 68.2376 137.721 68.3149 137.09C66.7239 136.66 64.5189 136.363 63.1644 137.46Z" fill="#F38143"/>
<path d="M51.6974 134.849C51.845 135.422 52.1816 135.929 52.6528 136.288C53.124 136.646 53.7023 136.836 54.2942 136.825C54.9293 136.801 55.5351 136.552 56.0031 136.122C56.4711 135.692 56.7706 135.11 56.848 134.479C55.2569 134.049 53.052 133.752 51.6974 134.849Z" fill="#F38143"/>
<path d="M45.7251 134.849C45.8727 135.422 46.2092 135.929 46.6804 136.288C47.1516 136.646 47.7299 136.836 48.3219 136.825C48.9569 136.801 49.5628 136.552 50.0308 136.122C50.4987 135.692 50.7983 135.11 50.8756 134.479C49.2846 134.049 47.0796 133.752 45.7251 134.849Z" fill="#F38143"/>
<path d="M69.2465 116.767C71.1027 116.022 73.3674 114.658 75.1759 113.473C75.1889 112.837 74.9659 112.219 74.55 111.738C74.5237 111.709 74.4974 111.681 74.4711 111.654C72.5456 109.638 69.1557 111.224 69.4496 113.996C69.5489 114.924 69.4801 115.863 69.2465 116.767Z" fill="#F8DEA5"/>
<path d="M66.9997 119.638C66.9997 119.638 61.8886 126.073 53.5273 119.622L66.9997 119.638Z" fill="#F8DEA5"/>
<path d="M50.8996 107.676C50.8996 107.676 47.7939 111.738 50.8996 116.755V107.676Z" fill="#F8DEA5"/>
<path d="M43.4938 121.534C43.4938 121.534 46.229 124.933 43.5281 127.634L43.4938 121.534Z" fill="#F8DEA5"/>
<path opacity="0.1" d="M43.2549 120.817C43.458 121.008 43.3887 121.192 43.4508 121.472L52.3329 119.145C51.8551 118.777 51.2627 118.339 51.0668 117.756C50.0013 118.583 47.8966 119.969 43.2549 120.817Z" fill="black"/>
<path d="M43.0375 120.511C43.2443 120.705 43.3883 120.956 43.4508 121.233L52.1083 118.975C51.6246 118.603 51.2621 118.096 51.0667 117.518C50.0013 118.344 47.6792 119.663 43.0375 120.511Z" fill="#383F4D"/>
<path opacity="0.1" d="M50.7412 117.995C50.7412 117.995 48.0328 120.033 43.4938 120.664L50.7412 117.995Z" fill="black"/>
<path d="M50.7412 117.756C50.7412 117.756 48.0328 119.794 43.4938 120.425L50.7412 117.756Z" fill="#F3AD55"/>
<path opacity="0.1" d="M42.5924 118.738C42.5924 118.738 38.0534 120.172 36.8589 115.632L42.5924 118.738Z" fill="black"/>
<path d="M42.5924 118.499C42.5924 118.499 38.0534 119.933 36.8589 115.393L42.5924 118.499Z" fill="#F3AD55"/>
<path d="M35.8492 114.844C36.1131 114.844 36.327 114.47 36.327 114.008C36.327 113.546 36.1131 113.172 35.8492 113.172C35.5854 113.172 35.3715 113.546 35.3715 114.008C35.3715 114.47 35.5854 114.844 35.8492 114.844Z" fill="#383F4D"/>
<path opacity="0.1" d="M72.0416 131.21L71.086 123.565C71.086 123.565 73.9527 128.104 72.0416 131.21Z" fill="black"/>
<path d="M70.8471 123.565C70.8471 123.565 73.7139 128.104 71.8027 131.21L70.8471 123.565Z" fill="#F3AD55"/>
<path opacity="0.1" d="M50.8995 119.33C50.8995 119.33 64.932 127.257 75.3888 123.162C79.4338 121.579 82.3466 118.01 83.3081 113.774C83.8491 111.407 84.7954 109.152 86.105 107.109C89.8936 101.2 96.5496 97.7827 103.567 97.8816C110.84 97.9842 124.49 96.996 128.493 88.5494" stroke="#383F4D" stroke-width="2" stroke-miterlimit="10"/>
<path d="M50.8995 119.091C50.8995 119.091 64.932 127.018 75.3888 122.923C79.4338 121.34 82.3466 117.772 83.3081 113.535C83.8491 111.168 84.7954 108.913 86.105 106.87C89.8936 100.961 96.5496 97.5437 103.567 97.6427C110.84 97.7452 124.49 96.757 128.493 88.3105" stroke="#383F4D" stroke-width="2" stroke-miterlimit="10"/>
<path d="M131.064 82.966C131.064 82.966 124.894 90.1619 126.191 90.6318C127.488 91.1017 133.542 85.9599 133.153 84.1421L131.064 82.966Z" fill="#A0616A"/>
<path d="M167.377 89.6348C167.377 89.6348 170.727 98.5023 169.348 98.5023C167.968 98.5023 164.028 91.6053 165.013 90.0289L167.377 89.6348Z" fill="#A0616A"/>
<path d="M173.739 143.715C176.068 140.431 177.094 137.156 176.029 136.401C174.964 135.645 172.212 137.695 169.882 140.979C167.552 144.263 166.527 147.538 167.592 148.294C168.657 149.049 171.409 147 173.739 143.715Z" fill="#2F2E41"/>
<path d="M148.915 147.692C151.975 145.076 153.769 142.15 152.92 141.157C152.072 140.165 148.903 141.481 145.842 144.097C142.782 146.714 140.989 149.639 141.837 150.632C142.686 151.625 145.854 150.309 148.915 147.692Z" fill="#2F2E41"/>
<path d="M169.461 35.9606C168.908 35.1784 168.228 34.4949 167.644 33.7352C166.299 31.9839 165.833 29.6502 164.027 28.3071C162.241 26.9782 159.405 25.6702 157.17 25.775C154.223 25.9131 151.885 28.1993 149.854 30.3387C148.302 31.9735 146.749 33.6084 145.197 35.2433C144.074 36.426 142.91 37.6816 142.505 39.2616C142.116 40.7801 142.495 42.4114 143.208 43.8078C143.948 45.2243 144.986 46.4637 146.25 47.4406C147.809 45.2938 149.993 42.3296 149.993 42.3296L150.502 49.7028C153.143 50.5782 155.98 50.7503 158.763 50.5568L159.587 47.5337L160.452 50.3894C163.778 49.9484 167.12 48.7999 169.179 46.2041C171.455 43.3343 171.576 38.9515 169.461 35.9606Z" fill="#2F2E41"/>
<path d="M156.738 42.5384C160.111 42.5384 162.845 39.8034 162.845 36.4297C162.845 33.0559 160.111 30.321 156.738 30.321C153.364 30.321 150.63 33.0559 150.63 36.4297C150.63 39.8034 153.364 42.5384 156.738 42.5384Z" fill="#A0616A"/>
<path d="M152.797 39.3855C152.797 39.3855 153.191 44.1149 150.63 44.509C148.068 44.9031 145.31 44.509 145.31 46.0854C145.31 47.6619 147.28 62.0469 147.28 62.0469L152.206 61.6528L159.102 54.9529L162.845 47.6619C162.845 47.6619 158.314 45.6913 160.284 39.7796L152.797 39.3855Z" fill="#A0616A"/>
<path d="M149.841 59.2882L147.871 53.9676L148.265 46.6766C148.265 46.6766 152.591 46.0854 152.497 42.5384L149.25 43.9178L141.763 45.1001V51.9971C141.763 51.9971 139.202 56.1353 142.157 60.2734L143.536 68.9439L157.723 67.9586L162.254 62.0469L167.968 50.8148L162.057 46.4795L162.846 45.2972L159.831 43.3307L160.284 47.0707L158.905 49.4354C158.905 49.4354 152.6 50.6177 149.841 59.2882Z" fill="#D0CDE1"/>
<path d="M142.945 45.4943L141.763 45.1002C141.763 45.1002 139.399 46.0854 139.399 49.2383C139.399 52.3912 129.941 83.526 129.941 83.526L134.276 84.7084L140.187 70.3233L143.733 58.3029L142.945 45.4943Z" fill="#D0CDE1"/>
<path d="M166.392 50.8148H167.968C167.968 50.8148 168.953 50.0265 168.756 55.7412C168.559 61.4558 169.348 91.6053 169.348 91.6053L163.634 91.2112L162.254 58.697L166.392 50.8148Z" fill="#D0CDE1"/>
<path d="M158.861 66.473C158.861 66.473 145.507 64.0175 142.551 66.3822C142.825 66.7135 142.966 67.1351 142.945 67.5645C142.945 68.3527 143.339 67.3675 142.945 68.3527C142.551 69.338 141.763 68.5498 142.551 69.338C143.339 70.1262 143.536 69.9292 143.142 70.5204C142.748 71.1115 143.142 72.0968 143.142 72.0968C143.142 72.0968 140.975 82.3437 142.945 89.6348C144.916 96.9258 161.269 148.357 165.604 146.978C169.939 145.599 180.775 139.293 180.184 137.125C179.593 134.958 159.693 105.005 159.693 105.005C159.693 105.005 167.968 79.1908 158.117 70.9145C158.117 70.9145 158.708 70.1262 158.511 69.5351C158.314 68.9439 158.117 69.5351 158.314 68.9439C158.511 68.3527 159.496 68.3527 158.905 67.7616C158.314 67.1704 158.861 66.473 158.861 66.473Z" fill="#2F2E41"/>
<path d="M149.841 87.6642C149.841 87.6642 136.443 147.569 139.202 148.554C141.96 149.54 152.6 149.737 153.388 148.554C154.176 147.372 159.693 105.005 159.693 105.005L149.841 87.6642Z" fill="#2F2E41"/>
<path d="M150.137 31.9959C150.137 31.9959 155.063 37.9076 164.914 34.5577L162.156 29.6313L155.654 27.6607L150.137 31.9959Z" fill="#2F2E41"/>
</g>
<defs>
<linearGradient id="paint0_linear" x1="55.5248" y1="140.171" x2="55.5248" y2="108.119" gradientUnits="userSpaceOnUse">
<stop stop-color="#808080" stop-opacity="0.25"/>
<stop offset="0.53514" stop-color="#808080" stop-opacity="0.12"/>
<stop offset="1" stop-color="#808080" stop-opacity="0.1"/>
</linearGradient>
<linearGradient id="paint1_linear" x1="3135.44" y1="2127.7" x2="3135.44" y2="2086.02" gradientUnits="userSpaceOnUse">
<stop stop-color="#808080" stop-opacity="0.25"/>
<stop offset="0.53514" stop-color="#808080" stop-opacity="0.12"/>
<stop offset="1" stop-color="#808080" stop-opacity="0.1"/>
</linearGradient>
<linearGradient id="paint2_linear" x1="3287.44" y1="2127.7" x2="3287.44" y2="2086.02" gradientUnits="userSpaceOnUse">
<stop stop-color="#808080" stop-opacity="0.25"/>
<stop offset="0.53514" stop-color="#808080" stop-opacity="0.12"/>
<stop offset="1" stop-color="#808080" stop-opacity="0.1"/>
</linearGradient>
<linearGradient id="paint3_linear" x1="3604.65" y1="2127.7" x2="3604.65" y2="2086.02" gradientUnits="userSpaceOnUse">
<stop stop-color="#808080" stop-opacity="0.25"/>
<stop offset="0.53514" stop-color="#808080" stop-opacity="0.12"/>
<stop offset="1" stop-color="#808080" stop-opacity="0.1"/>
</linearGradient>
<linearGradient id="paint4_linear" x1="3769.85" y1="2127.7" x2="3769.85" y2="2086.02" gradientUnits="userSpaceOnUse">
<stop stop-color="#808080" stop-opacity="0.25"/>
<stop offset="0.53514" stop-color="#808080" stop-opacity="0.12"/>
<stop offset="1" stop-color="#808080" stop-opacity="0.1"/>
</linearGradient>
<linearGradient id="paint5_linear" x1="3567.71" y1="3822.94" x2="3567.71" y2="3620.84" gradientUnits="userSpaceOnUse">
<stop stop-color="#808080" stop-opacity="0.25"/>
<stop offset="0.53514" stop-color="#808080" stop-opacity="0.12"/>
<stop offset="1" stop-color="#808080" stop-opacity="0.1"/>
</linearGradient>
<linearGradient id="paint6_linear" x1="8897.5" y1="1982.83" x2="8897.5" y2="1936.88" gradientUnits="userSpaceOnUse">
<stop stop-color="#808080" stop-opacity="0.25"/>
<stop offset="0.53514" stop-color="#808080" stop-opacity="0.12"/>
<stop offset="1" stop-color="#808080" stop-opacity="0.1"/>
</linearGradient>
<linearGradient id="paint7_linear" x1="1032.69" y1="5702.86" x2="1032.69" y2="5243.42" gradientUnits="userSpaceOnUse">
<stop stop-color="#808080" stop-opacity="0.25"/>
<stop offset="0.53514" stop-color="#808080" stop-opacity="0.12"/>
<stop offset="1" stop-color="#808080" stop-opacity="0.1"/>
</linearGradient>
<linearGradient id="paint8_linear" x1="958.038" y1="4252.04" x2="958.038" y2="4044.64" gradientUnits="userSpaceOnUse">
<stop stop-color="#808080" stop-opacity="0.25"/>
<stop offset="0.53514" stop-color="#808080" stop-opacity="0.12"/>
<stop offset="1" stop-color="#808080" stop-opacity="0.1"/>
</linearGradient>
<linearGradient id="paint9_linear" x1="6632.99" y1="2506.66" x2="6632.99" y2="2429.73" gradientUnits="userSpaceOnUse">
<stop stop-color="#808080" stop-opacity="0.25"/>
<stop offset="0.53514" stop-color="#808080" stop-opacity="0.12"/>
<stop offset="1" stop-color="#808080" stop-opacity="0.1"/>
</linearGradient>
<linearGradient id="paint10_linear" x1="6638.72" y1="2501.47" x2="6638.72" y2="2424.53" gradientUnits="userSpaceOnUse">
<stop stop-color="#808080" stop-opacity="0.25"/>
<stop offset="0.53514" stop-color="#808080" stop-opacity="0.12"/>
<stop offset="1" stop-color="#808080" stop-opacity="0.1"/>
</linearGradient>
<linearGradient id="paint11_linear" x1="5331.64" y1="1822.46" x2="5331.64" y2="1782.77" gradientUnits="userSpaceOnUse">
<stop stop-color="#808080" stop-opacity="0.25"/>
<stop offset="0.53514" stop-color="#808080" stop-opacity="0.12"/>
<stop offset="1" stop-color="#808080" stop-opacity="0.1"/>
</linearGradient>
<linearGradient id="paint12_linear" x1="5331.64" y1="1818.66" x2="5331.64" y2="1778.97" gradientUnits="userSpaceOnUse">
<stop stop-color="#808080" stop-opacity="0.25"/>
<stop offset="0.53514" stop-color="#808080" stop-opacity="0.12"/>
<stop offset="1" stop-color="#808080" stop-opacity="0.1"/>
</linearGradient>
<linearGradient id="paint13_linear" x1="4413.5" y1="2189.03" x2="4413.5" y2="2127.57" gradientUnits="userSpaceOnUse">
<stop stop-color="#808080" stop-opacity="0.25"/>
<stop offset="0.53514" stop-color="#808080" stop-opacity="0.12"/>
<stop offset="1" stop-color="#808080" stop-opacity="0.1"/>
</linearGradient>
<linearGradient id="paint14_linear" x1="4413.5" y1="2184.36" x2="4413.5" y2="2122.9" gradientUnits="userSpaceOnUse">
<stop stop-color="#808080" stop-opacity="0.25"/>
<stop offset="0.53514" stop-color="#808080" stop-opacity="0.12"/>
<stop offset="1" stop-color="#808080" stop-opacity="0.1"/>
</linearGradient>
<linearGradient id="paint15_linear" x1="-607.837" y1="1128" x2="-607.837" y2="1112.41" gradientUnits="userSpaceOnUse">
<stop stop-color="#808080" stop-opacity="0.25"/>
<stop offset="0.53514" stop-color="#808080" stop-opacity="0.12"/>
<stop offset="1" stop-color="#808080" stop-opacity="0.1"/>
</linearGradient>
<linearGradient id="paint16_linear" x1="1025.87" y1="5452.34" x2="1025.87" y2="5126.53" gradientUnits="userSpaceOnUse">
<stop stop-color="#808080" stop-opacity="0.25"/>
<stop offset="0.53514" stop-color="#808080" stop-opacity="0.12"/>
<stop offset="1" stop-color="#808080" stop-opacity="0.1"/>
</linearGradient>
<linearGradient id="paint17_linear" x1="1027.77" y1="5452.34" x2="1027.77" y2="5126.53" gradientUnits="userSpaceOnUse">
<stop stop-color="#808080" stop-opacity="0.25"/>
<stop offset="0.53514" stop-color="#808080" stop-opacity="0.12"/>
<stop offset="1" stop-color="#808080" stop-opacity="0.1"/>
</linearGradient>
<clipPath id="clip0">
<rect width="198" height="177.547" fill="white" transform="translate(0 0.591217)"/>
</clipPath>
</defs>
</svg>
